# xmcd
#
# Track frame offsets:
# 150
# 20965
# 32242
# 41252
# 51997
# 64417
# 81365
# 92800
# 110355
# 128317
# 138322
# 155862
# 164485
# 175535
#
# Disc length: 2504 seconds
#
#
# Revision: 0
# Processed by: cddbd v1.5.1PL2 Copyright (c) Steve Scherf et al.
# Submitted via: FreeRIP 2.944 
#
DISCID=be09c60e
DTITLE=Various Artist - Family Christmas Collection II
DYEAR=1988
DGENRE=Christmas
TTITLE0=Tennessee Christmas
TTITLE1=Away In A Manger
TTITLE2=Christmas Country Style
TTITLE3=Baby, It's Cold Outside
TTITLE4=The Christmas Waltz
TTITLE5=Santa Claus Is Comming To Town
TTITLE6=It's The Most Wonderful Time Of The Year
TTITLE7=Hard Candy Christmas
TTITLE8=O Holy Night
TTITLE9=Silent Night, Holy Night
TTITLE10=Homecomming Christmas
TTITLE11=I Wish You A Merry Christmas
TTITLE12=Let It Snow! Let It Snow! Let It Snow!
TTITLE13=Have Yourself A Merry Little Christmas
EXTD=
EXTT0=
EXTT1=
EXTT2=
EXTT3=
EXTT4=
EXTT5=
EXTT6=
EXTT7=
EXTT8=
EXTT9=
EXTT10=
EXTT11=
EXTT12=
EXTT13=
PLAYORDER=
